<svg xmlns="http://www.w3.org/2000/svg" viewBox="0 0 363.46 611.33"><defs><style>.cls-1,.cls-3{fill:none;}.cls-2{fill:#fff;}.cls-3{stroke:#fff;stroke-linecap:round;stroke-linejoin:round;stroke-width:5px;}</style></defs><g id="Capa_2" data-name="Capa 2"><g id="Layer_1" data-name="Layer 1"><path class="cls-1" d="M10.45,409.43a65.73,65.73,0,0,0,23.17-7.84,61.76,61.76,0,0,0,18.4-16A68.17,68.17,0,0,1,10.45,409.43Z"/><path class="cls-2" d="M1.59,520.71H23.67V526H6.82v14.26H22.41v5.24H6.82v14.19H23.67v5.24H1.59Z"/><path class="cls-2" d="M27.45,560a17.73,17.73,0,0,1,5.87-12.81,17.67,17.67,0,0,1-5.87-12.8v-4.86h5.24v4.86c0,4,2.33,7.38,4.86,9.52,2.52-2.14,4.86-5.55,4.86-9.52v-4.86h5.23v4.86a17.93,17.93,0,0,1-5.86,12.8A18,18,0,0,1,47.64,560v4.86H42.41V560c0-3.91-2.34-7.32-4.86-9.52-2.53,2.2-4.86,5.61-4.86,9.52v4.86H27.45Z"/><path class="cls-2" d="M52.69,529.55h10a10.16,10.16,0,0,1,0,20.32h-4.8v15H52.69Zm5.23,15.08h4.8a4.92,4.92,0,0,0,0-9.84h-4.8Z"/><path class="cls-2" d="M77.29,555.29V539.14a10.1,10.1,0,1,1,20.19,0v16.15a10.1,10.1,0,1,1-20.19,0Zm15,0V539.14a4.86,4.86,0,0,0-9.72,0v16.15a4.86,4.86,0,1,0,9.72,0Z"/><path class="cls-2" d="M102.53,539.14a10.1,10.1,0,1,1,20.19,0v25.74h-5.24V539.14a4.86,4.86,0,0,0-9.72,0v25.74h-5.23Z"/><path class="cls-2" d="M127.76,529.55h17.67v5.24H133v9.84h11.42v5.24H133v9.77h12.43v5.24H127.76Z"/><path class="cls-2" d="M149.21,539.14a10.1,10.1,0,1,1,20.19,0v25.74h-5.23V539.14a4.86,4.86,0,1,0-9.72,0v25.74h-5.24Z"/><path class="cls-2" d="M177.79,534.79h-7.44v-5.24h20.19v5.24H183v30.09h-5.24Z"/><path class="cls-2" d="M194,529.55h17.67v5.24H199.24v9.84h11.42v5.24H199.24v9.77h12.43v5.24H194Z"/><path class="cls-2" d="M224.92,520.71h12.62a12.66,12.66,0,0,1,12.61,12.62v18.93a12.66,12.66,0,0,1-12.61,12.62H224.92Zm12.62,38.93a7.35,7.35,0,0,0,7.38-7.38V533.33a7.35,7.35,0,0,0-7.38-7.38h-7.39v33.69Z"/><path class="cls-2" d="M255.2,529.55h5.23v35.33H255.2Z"/><path class="cls-2" d="M265.48,555.29V539.14a10.1,10.1,0,1,1,20.19,0v.5h-5.24v-.5a4.86,4.86,0,1,0-9.71,0v16.15a4.86,4.86,0,1,0,9.71,0v-5.42h-4.85v-5.24h10.09v10.66a10.1,10.1,0,1,1-20.19,0Z"/><path class="cls-2" d="M290.71,529.55H296v35.33h-5.24Z"/><path class="cls-2" d="M306.87,534.79h-7.45v-5.24h20.19v5.24H312.1v30.09h-5.23Z"/><path class="cls-2" d="M320.55,539.14a10.1,10.1,0,0,1,20.2,0v25.74h-5.24v-15h-9.72v15h-5.24Zm15,5.49v-5.49a4.86,4.86,0,0,0-9.72,0v5.49Z"/><path class="cls-2" d="M345.79,529.55H351v30.09h12.43v5.24H345.79Z"/><path class="cls-2" d="M0,589.37H1.92V610.5H0Z"/><path class="cls-2" d="M13.09,588.49l15,17.67V589.37h1.8v21.76L14.9,593.42V610.5H13.09Z"/><path class="cls-2" d="M51.31,590.58c-5.53,0-9.22,3.91-9.22,9.37,0,5.65,3.87,9.34,8.95,9.34a10.86,10.86,0,0,0,6.83-2.45l0,2.25a12.89,12.89,0,0,1-6.71,2,11.09,11.09,0,1,1,0-22.17A10.88,10.88,0,0,1,58,591.12L58,593.24A9.85,9.85,0,0,0,51.31,590.58Z"/><path class="cls-2" d="M78.56,610.5l-7.42-10.07H70V610.5H68.07V589.37h3.87c4.58,0,6.85,1.89,6.85,5.77,0,3.31-2.09,5.29-5.49,5.29l7.59,10.07ZM70,598.86h1.92c3.28,0,4.81-.77,4.81-3.78s-1.44-4-4.81-4H70Z"/><path class="cls-2" d="M89.58,589.37H100v1.8H91.5v6.63H100v1.8H91.5v9.1H100v1.8H89.58Z"/><path class="cls-2" d="M112.87,594.37l-1.6,16.13h-2l2.87-22,8.1,18.79,8.39-18.79,2.72,22h-2l-1.56-16.13-7.54,17Z"/><path class="cls-2" d="M141.27,589.37h10.47v1.8H143.2v6.63h8.54v1.8H143.2v9.1h8.54v1.8H141.27Z"/><path class="cls-2" d="M162.35,588.49l15,17.67V589.37h1.8v21.76l-14.95-17.71V610.5h-1.8Z"/><path class="cls-2" d="M194,591.17h-5.82v-1.8h13.56v1.8H196V610.5H194Z"/><path class="cls-2" d="M215.07,588.54l8.9,22h-2.1l-2.69-7.15h-8.63l-2.81,7.15h-2Zm3.49,13.16-3.6-9.2-3.76,9.2Z"/><path class="cls-2" d="M232.25,589.37h1.92V608.7h7.24v1.8h-9.16Z"/><path class="cls-2" d="M264.81,606.07a4.31,4.31,0,0,0,4.32,3.28c2.66,0,4.26-1.62,4.26-4.46,0-2.6-1.54-3.58-4-4.88-3.34-1.74-5.29-3.1-5.29-6.06s2.21-5.08,5.46-5.08a5,5,0,0,1,4.67,2.69l-1.47.89a3.46,3.46,0,0,0-3.32-1.87A3.16,3.16,0,0,0,266,594c0,2.57,1.92,3.17,4.67,4.67,3.1,1.69,4.52,3.05,4.52,6.24,0,3.78-2.37,6.18-6.18,6.18a6,6,0,0,1-5.88-4.11Z"/><path class="cls-2" d="M291.8,588.54l8.89,22H298.6l-2.69-7.15h-8.63l-2.81,7.15h-2Zm3.49,13.16-3.61-9.2-3.75,9.2Z"/><path class="cls-2" d="M309,589.37h1.92V608.7h7.24v1.8H309Z"/><path class="cls-2" d="M327.09,589.37h10.46v1.8H329v6.63h8.54v1.8H329v9.1h8.54v1.8H327.09Z"/><path class="cls-2" d="M348.19,606.07a4.29,4.29,0,0,0,4.31,3.28c2.66,0,4.26-1.62,4.26-4.46,0-2.6-1.54-3.58-4-4.88-3.34-1.74-5.29-3.1-5.29-6.06s2.22-5.08,5.47-5.08a5,5,0,0,1,4.67,2.69l-1.48.89a3.43,3.43,0,0,0-3.31-1.87,3.17,3.17,0,0,0-3.4,3.4c0,2.57,1.92,3.17,4.67,4.67,3.1,1.69,4.52,3.05,4.52,6.24,0,3.78-2.36,6.18-6.17,6.18a6,6,0,0,1-5.89-4.11Z"/><path class="cls-2" d="M151.85,450.33c-.72.84-1.43,1.68-2.17,2.5C150.42,452,151.13,451.17,151.85,450.33Z"/><path class="cls-2" d="M151.47,448.67c-.46.56-.94,1.11-1.41,1.66C150.53,449.78,151,449.23,151.47,448.67Z"/><path class="cls-3" d="M152,193.05q10.81,9,38.6,8.26,30-.83,50.72-22.51,2.57-2.91,10.41-12.87l42.4,13.84q-14.82,21.73-21.53,28.81-32.94,34.81-80.8,36.14-47.68,1.32-82.48-31.61T73.2,132.3q-1.33-47.87,31.61-82.68t80.6-36.13q41-1.12,72.49,22.76,5.19,4.11,10.19,8.85,2.09,2,11.92,12.45L259.5,79.44ZM218.6,61.29q-7.24-5.28-32-4.6-29.82.83-50.43,22.61t-19.77,51.81q.68,24.54,6.35,31.69Z"/><path class="cls-2" d="M192,446.43a69.78,69.78,0,0,0,24.64-8.33,65.75,65.75,0,0,0,19.57-17A72.54,72.54,0,0,1,192,446.43Z"/><path class="cls-3" d="M261.48,293.25A113.15,113.15,0,0,0,212,263.49c-12.6-3.58-25.31-4.08-38.29-4.11l-64.33-.11L41,259.16l-12.45,0L7.11,304.32l41.38-.4,48.9-.48,30.93-.3c14.63-.14,29.32-.64,44-.43,2,0,4.08.07,6.12.14,13.55.4,26.68,3,38.36,9.25a72.55,72.55,0,0,1,35.51,53.73c0,.11,0,.21,0,.32.9,19.92-4.38,39.8-16.11,54.94a65.75,65.75,0,0,1-19.57,17A69.78,69.78,0,0,1,192,446.43,72.55,72.55,0,0,1,110.51,355H71.68c-.69,3.37-1.21,6.81-1.59,10.28a111.67,111.67,0,0,0,0,24.61,112.24,112.24,0,0,0,194,63.9c.28-.31.58-.61.86-.93.74-.82,1.45-1.66,2.17-2.5.47-.55.95-1.1,1.41-1.66q25.88-31.4,25.89-73.77Q294.43,327,261.48,293.25Z"/><polygon class="cls-2" points="247.15 0 294.15 0 294.15 47 247.15 0"/></g></g></svg>