<svg xmlns="http://www.w3.org/2000/svg" viewBox="0 0 287.3 489.82"><defs><style>.cls-1{fill:#4d4d4d;}.cls-2{fill:#b00000;}.cls-3{fill:none;}</style></defs><g id="Capa_2" data-name="Capa 2"><g id="Layer_1" data-name="Layer 1"><path class="cls-1" d="M144.73,450.33c-.71.84-1.43,1.68-2.17,2.5C143.31,452,144,451.17,144.73,450.33Z"/><path class="cls-2" d="M144.35,448.67c-.45.56-.94,1.11-1.41,1.66C143.41,449.78,143.89,449.23,144.35,448.67Z"/><path class="cls-1" d="M144.9,193.05q10.82,9,38.6,8.26,30-.83,50.73-22.51,2.55-2.91,10.4-12.87L287,179.77q-14.84,21.73-21.54,28.81-32.92,34.81-80.8,36.14Q137,246,102.23,213.11T66.08,132.3Q64.76,84.44,97.7,49.62t80.6-36.13q41-1.12,72.48,22.76Q256,40.36,261,45.1q2.08,2,11.92,12.45l-20.5,21.89ZM211.49,61.29q-7.26-5.28-32-4.6-29.81.83-50.43,22.61t-19.77,51.81q.69,24.54,6.36,31.69Z"/><path class="cls-3" d="M184.86,446.43a69.83,69.83,0,0,0,24.65-8.33,65.84,65.84,0,0,0,19.56-17A72.52,72.52,0,0,1,184.86,446.43Z"/><path class="cls-1" d="M254.36,293.25a113.12,113.12,0,0,0-49.48-29.76c-12.61-3.58-25.32-4.08-38.3-4.11l-64.33-.11-68.4-.11-12.45,0L0,304.32l41.38-.4,48.89-.48,30.93-.3c14.64-.14,29.33-.64,44-.43,2.05,0,4.09.07,6.13.14,13.55.4,26.67,3,38.35,9.25a72.56,72.56,0,0,1,35.52,53.73c0,.11,0,.21,0,.32.9,19.92-4.39,39.8-16.12,54.94a65.84,65.84,0,0,1-19.56,17,69.83,69.83,0,0,1-24.65,8.33A72.52,72.52,0,0,1,103.4,355H64.56c-.68,3.37-1.21,6.81-1.58,10.28a112.23,112.23,0,0,0,194,88.51c.29-.31.59-.61.86-.93.75-.82,1.46-1.66,2.18-2.5.47-.55.95-1.1,1.41-1.66q25.88-31.4,25.89-73.77Q287.3,327,254.36,293.25Z"/><polygon class="cls-2" points="240.04 0 287.04 0 287.04 47 240.04 0"/></g></g></svg>