<svg xmlns="http://www.w3.org/2000/svg" viewBox="0 0 363.46 90.62"><defs><style>.cls-1{fill:#b00000;}.cls-2{fill:#4d4d4d;}</style></defs><g id="Capa_2" data-name="Capa 2"><g id="Layer_1" data-name="Layer 1"><path class="cls-1" d="M1.59,0H23.67V5.24H6.82V19.5H22.41v5.23H6.82v14.2H23.67v5.24H1.59Z"/><path class="cls-1" d="M27.45,39.31A17.71,17.71,0,0,1,33.32,26.5a17.71,17.71,0,0,1-5.87-12.81V8.83h5.24v4.86c0,4,2.33,7.38,4.86,9.53,2.52-2.15,4.86-5.55,4.86-9.53V8.83h5.23v4.86A18,18,0,0,1,41.78,26.5a18,18,0,0,1,5.86,12.81v4.86H42.41V39.31c0-3.91-2.34-7.32-4.86-9.53C35,32,32.69,35.4,32.69,39.31v4.86H27.45Z"/><path class="cls-1" d="M52.69,8.83h10a10.16,10.16,0,0,1,0,20.32h-4.8v15H52.69Zm5.23,15.08h4.8a4.92,4.92,0,1,0,0-9.84h-4.8Z"/><path class="cls-1" d="M77.29,34.58V18.42a10.1,10.1,0,0,1,20.19,0V34.58a10.1,10.1,0,0,1-20.19,0Zm15,0V18.42a4.86,4.86,0,0,0-9.72,0V34.58a4.86,4.86,0,0,0,9.72,0Z"/><path class="cls-1" d="M102.53,18.42a10.1,10.1,0,0,1,20.19,0V44.17h-5.24V18.42a4.86,4.86,0,0,0-9.72,0V44.17h-5.23Z"/><path class="cls-1" d="M127.76,8.83h17.67v5.24H133v9.84h11.42v5.24H133v9.78h12.43v5.24H127.76Z"/><path class="cls-1" d="M149.21,18.42a10.1,10.1,0,0,1,20.19,0V44.17h-5.23V18.42a4.86,4.86,0,0,0-9.72,0V44.17h-5.24Z"/><path class="cls-1" d="M177.79,14.07h-7.44V8.83h20.19v5.24H183v30.1h-5.24Z"/><path class="cls-1" d="M194,8.83h17.67v5.24H199.24v9.84h11.42v5.24H199.24v9.78h12.43v5.24H194Z"/><path class="cls-2" d="M224.92,0h12.61a12.65,12.65,0,0,1,12.62,12.62V31.55a12.65,12.65,0,0,1-12.62,12.62H224.92Zm12.61,38.93a7.35,7.35,0,0,0,7.39-7.38V12.62a7.35,7.35,0,0,0-7.39-7.38h-7.38V38.93Z"/><path class="cls-2" d="M255.2,8.83h5.23V44.17H255.2Z"/><path class="cls-2" d="M265.48,34.58V18.42a10.1,10.1,0,0,1,20.19,0v.51h-5.24v-.51a4.86,4.86,0,0,0-9.71,0V34.58a4.86,4.86,0,0,0,9.71,0V29.15h-4.85V23.91h10.09V34.58a10.1,10.1,0,0,1-20.19,0Z"/><path class="cls-2" d="M290.72,8.83H296V44.17h-5.23Z"/><path class="cls-2" d="M306.87,14.07h-7.45V8.83h20.19v5.24H312.1v30.1h-5.23Z"/><path class="cls-2" d="M320.56,18.42a10.1,10.1,0,0,1,20.19,0V44.17h-5.24v-15h-9.72v15h-5.23Zm14.95,5.49V18.42a4.86,4.86,0,0,0-9.72,0v5.49Z"/><path class="cls-2" d="M345.79,8.83H351v30.1h12.43v5.24H345.79Z"/><path class="cls-2" d="M0,68.66H1.92V89.79H0Z"/><path class="cls-2" d="M13.09,67.77l15,17.68V68.66h1.8V90.41L14.9,72.71V89.79H13.09Z"/><path class="cls-2" d="M51.31,69.87c-5.53,0-9.22,3.9-9.22,9.37,0,5.64,3.87,9.34,8.95,9.34a10.88,10.88,0,0,0,6.83-2.46l0,2.25a12.89,12.89,0,0,1-6.71,2,11.09,11.09,0,1,1,0-22.17A10.88,10.88,0,0,1,58,70.4L58,72.53A9.85,9.85,0,0,0,51.31,69.87Z"/><path class="cls-2" d="M78.56,89.79,71.14,79.71H70V89.79H68.07V68.66h3.87c4.58,0,6.85,1.89,6.85,5.76,0,3.31-2.09,5.29-5.49,5.29l7.59,10.08ZM70,78.15h1.92c3.28,0,4.81-.77,4.81-3.79s-1.44-4-4.81-4H70Z"/><path class="cls-2" d="M89.58,68.66H100v1.8H91.5v6.62H100v1.8H91.5V88H100v1.8H89.58Z"/><path class="cls-2" d="M112.87,73.65l-1.6,16.14h-2l2.87-22,8.1,18.8,8.39-18.8,2.72,22h-2l-1.56-16.14-7.54,17Z"/><path class="cls-2" d="M141.27,68.66h10.47v1.8H143.2v6.62h8.54v1.8H143.2V88h8.54v1.8H141.27Z"/><path class="cls-2" d="M162.35,67.77l15,17.68V68.66h1.8V90.41l-14.95-17.7V89.79h-1.8Z"/><path class="cls-2" d="M194,70.46h-5.82v-1.8h13.56v1.8H196V89.79H194Z"/><path class="cls-2" d="M215.07,67.83l8.9,22h-2.1l-2.69-7.15h-8.63l-2.81,7.15h-2ZM218.56,81,215,71.79,211.2,81Z"/><path class="cls-2" d="M232.25,68.66h1.92V88h7.24v1.8h-9.16Z"/><path class="cls-2" d="M264.81,85.36a4.31,4.31,0,0,0,4.32,3.28c2.66,0,4.26-1.63,4.26-4.47,0-2.6-1.54-3.57-4-4.87-3.34-1.75-5.29-3.11-5.29-6.06s2.21-5.08,5.46-5.08a5,5,0,0,1,4.67,2.68l-1.47.89a3.46,3.46,0,0,0-3.32-1.86,3.16,3.16,0,0,0-3.39,3.4c0,2.57,1.92,3.16,4.67,4.67,3.1,1.68,4.52,3,4.52,6.23,0,3.79-2.37,6.18-6.18,6.18a6,6,0,0,1-5.88-4.11Z"/><path class="cls-2" d="M291.8,67.83l8.89,22H298.6l-2.69-7.15h-8.63l-2.81,7.15h-2ZM295.29,81l-3.61-9.19L287.93,81Z"/><path class="cls-2" d="M309,68.66h1.92V88h7.24v1.8H309Z"/><path class="cls-2" d="M327.09,68.66h10.46v1.8H329v6.62h8.54v1.8H329V88h8.54v1.8H327.09Z"/><path class="cls-2" d="M348.19,85.36a4.29,4.29,0,0,0,4.31,3.28c2.66,0,4.26-1.63,4.26-4.47,0-2.6-1.54-3.57-4-4.87-3.34-1.75-5.29-3.11-5.29-6.06s2.22-5.08,5.47-5.08a5,5,0,0,1,4.67,2.68l-1.48.89a3.44,3.44,0,0,0-3.31-1.86,3.17,3.17,0,0,0-3.4,3.4c0,2.57,1.92,3.16,4.67,4.67,3.1,1.68,4.52,3,4.52,6.23,0,3.79-2.36,6.18-6.17,6.18a6,6,0,0,1-5.89-4.11Z"/></g></g></svg>